# xmcd
#
# Track frame offsets: 
#        150
#        18786
#        37441
#        59653
#        74599
#        98144
#        113923
#        131277
#        148871
#        169727
#
# Disc length: 2578 seconds
#
# Revision: 0
# Processed by: cddbd v1.5.2PL0 Copyright (c) Steve Scherf et al.
# Submitted via: ExactAudioCopy v0.99pb5
#
DISCID=950a100a
DTITLE=Limit Blues - Inaczej
DYEAR=2015
DGENRE=Blues
TTITLE0=01.Ale có¿
TTITLE1=02.Czy tego chcesz
TTITLE2=03.Umieæ siê zachowaæ
TTITLE3=04.Jestem sam
TTITLE4=05.Wszystko siê zmienia
TTITLE5=06.Bluesa gram
TTITLE6=07.Jestem z³odziejem
TTITLE7=08.Dzisiejszy swiat
TTITLE8=09.Pierwszy plan
TTITLE9=10.Ja i ona
EXTD=
EXTT0=
EXTT1=
EXTT2=
EXTT3=
EXTT4=
EXTT5=
EXTT6=
EXTT7=
EXTT8=
EXTT9=
PLAYORDER=
